<svg width="28" height="28" viewBox="0 0 28 28" fill="none" xmlns="http://www.w3.org/2000/svg">
<path d="M0.0650635 13.6331C0.0650635 6.10376 6.16883 0 13.6982 0C21.2276 0 27.3313 6.10376 27.3313 13.6331C27.3313 21.1625 21.2276 27.2663 13.6982 27.2663C6.16883 27.2663 0.0650635 21.1625 0.0650635 13.6331Z" fill="#7289DA"/>
<mask id="mask0" style="mask-type:alpha" maskUnits="userSpaceOnUse" x="0" y="0" width="28" height="28">
<path fill-rule="evenodd" clip-rule="evenodd" d="M0.0650635 13.6331C0.0650635 6.10376 6.16883 0 13.6982 0C21.2276 0 27.3313 6.10376 27.3313 13.6331C27.3313 21.1625 21.2276 27.2663 13.6982 27.2663C6.16883 27.2663 0.0650635 21.1625 0.0650635 13.6331Z" fill="white"/>
</mask>
<g mask="url(#mask0)">
<path fill-rule="evenodd" clip-rule="evenodd" d="M11.8805 13.633C11.8805 13.1335 12.2399 12.7241 12.6951 12.7241C13.1504 12.7241 13.5177 13.1335 13.5098 13.633C13.5098 14.1325 13.1504 14.5419 12.6951 14.5419C12.2479 14.5419 11.8805 14.1325 11.8805 13.633ZM14.7955 13.6331C14.7955 13.1336 15.1549 12.7242 15.6101 12.7242C16.0653 12.7242 16.4247 13.1336 16.4247 13.6331C16.4247 14.1326 16.0653 14.542 15.6101 14.542C15.1628 14.542 14.7955 14.1326 14.7955 13.6331Z" fill="white"/>
<path fill-rule="evenodd" clip-rule="evenodd" d="M8.53185 5.90765H19.3189C20.2286 5.90765 20.9692 6.6393 20.9692 7.5459V21.813L19.2384 20.302L18.2644 19.4113L17.2339 18.4649L17.6606 19.9362H8.53185C7.6222 19.9362 6.88159 19.2045 6.88159 18.2979V7.5459C6.88159 6.6393 7.6222 5.90765 8.53185 5.90765ZM15.6805 15.6496C15.922 15.9518 16.2118 16.2938 16.2118 16.2938C17.9909 16.2381 18.6751 15.085 18.6751 15.085C18.6751 12.5242 17.5159 10.4486 17.5159 10.4486C16.3567 9.58968 15.2538 9.61354 15.2538 9.61354L15.1411 9.74078C16.5096 10.1543 17.1456 10.7508 17.1456 10.7508C16.3084 10.2975 15.4873 10.0748 14.7225 9.98732C14.1429 9.92369 13.5875 9.9396 13.0964 10.0032C13.0543 10.0032 13.0182 10.0093 12.9776 10.0161C12.9717 10.0171 12.9657 10.0181 12.9596 10.0191C12.6778 10.043 11.9936 10.1464 11.1322 10.5201C10.8344 10.6553 10.6573 10.7508 10.6573 10.7508C10.6573 10.7508 11.3254 10.1225 12.7744 9.70897L12.6939 9.61354C12.6939 9.61354 11.5911 9.58968 10.4319 10.4486C10.4319 10.4486 9.27266 12.5242 9.27266 15.085C9.27266 15.085 9.94886 16.2381 11.7279 16.2938C11.7279 16.2938 12.0258 15.9359 12.2673 15.6337C11.2449 15.3315 10.8585 14.6953 10.8585 14.6953C10.8585 14.6953 10.939 14.751 11.0839 14.8305C11.092 14.8384 11.1 14.8464 11.1161 14.8543C11.1282 14.8623 11.1403 14.8683 11.1523 14.8742C11.1644 14.8802 11.1765 14.8862 11.1886 14.8941C11.3898 15.0054 11.5911 15.0929 11.7762 15.1645C12.1063 15.2917 12.5007 15.419 12.9596 15.5065C13.5633 15.6178 14.2717 15.6576 15.0445 15.5144C15.4229 15.4508 15.8093 15.3395 16.2118 15.1725C16.4935 15.0691 16.8075 14.918 17.1375 14.7032C17.1375 14.7032 16.735 15.3554 15.6805 15.6496Z" fill="white"/>
</g>
</svg>
