<svg width="28" height="28" viewBox="0 0 28 28" fill="none" xmlns="http://www.w3.org/2000/svg">
<path d="M0.532593 13.6331C0.532593 6.10376 6.63636 0 14.1657 0C21.6951 0 27.7989 6.10376 27.7989 13.6331C27.7989 21.1625 21.6951 27.2663 14.1657 27.2663C6.63636 27.2663 0.532593 21.1625 0.532593 13.6331Z" fill="#0077B5"/>
<path fill-rule="evenodd" clip-rule="evenodd" d="M10.3704 8.42002C10.3704 9.31134 9.69947 10.0245 8.62219 10.0245H8.60245C7.56521 10.0245 6.89465 9.31134 6.89465 8.42002C6.89465 7.50984 7.58563 6.81659 8.64255 6.81659C9.69947 6.81659 10.3503 7.50984 10.3704 8.42002ZM10.1669 11.2918V20.5747H7.07734V11.2918H10.1669ZM21.3089 20.5746L21.3091 15.2521C21.3091 12.4008 19.7849 11.0738 17.7518 11.0738C16.1114 11.0738 15.377 11.9748 14.967 12.6068V11.292H11.877C11.9178 12.1631 11.877 20.5749 11.877 20.5749H14.967V15.3906C14.967 15.1131 14.987 14.8364 15.0687 14.6377C15.292 14.0835 15.8004 13.5096 16.654 13.5096C17.7724 13.5096 18.2195 14.3608 18.2195 15.6083V20.5746H21.3089Z" fill="white"/>
</svg>
