<svg width="28" height="28" viewBox="0 0 28 28" fill="none" xmlns="http://www.w3.org/2000/svg">
<path d="M14.2308 27.2663C21.7602 27.2663 27.8639 21.1625 27.8639 13.6331C27.8639 6.10376 21.7602 0 14.2308 0C6.70142 0 0.597656 6.10376 0.597656 13.6331C0.597656 21.1625 6.70142 27.2663 14.2308 27.2663Z" fill="#6C7995"/>
<path d="M15.4309 16.406C14.5802 16.4077 13.7522 16.1323 13.072 15.6214C12.9712 15.5467 12.9041 15.4352 12.8853 15.3111C12.8664 15.1871 12.8975 15.0606 12.9716 14.9594C12.9835 14.9424 13.523 14.3994 13.523 14.3994C13.5978 14.3195 13.6983 14.2685 13.807 14.2554C13.9156 14.2423 14.0254 14.268 14.117 14.328C14.5535 14.6396 15.0862 14.7867 15.6208 14.743C16.1554 14.6994 16.6572 14.468 17.0374 14.0897L19.5903 11.5369C20.363 10.7642 20.5536 9.53372 19.9426 8.62831C19.2482 7.58335 17.7301 7.19191 16.5269 8.24879C16.3975 8.36282 15.0139 9.71242 15.0139 9.71242C14.9712 9.75539 14.9204 9.78949 14.8645 9.81276C14.8085 9.83602 14.7486 9.848 14.688 9.848C14.6274 9.848 14.5674 9.83602 14.5115 9.81276C14.4555 9.78949 14.4048 9.75539 14.3621 9.71242L13.8515 9.20185C13.765 9.11509 13.7165 8.99758 13.7165 8.87509C13.7165 8.75259 13.765 8.63509 13.8515 8.54832L15.1688 7.23276C16.6086 5.78955 18.9606 5.55128 20.5314 6.84983C21.333 7.50883 21.84 8.45911 21.9412 9.49182C22.0424 10.5245 21.7293 11.5552 21.0709 12.3572C20.9893 12.4559 18.1913 15.2623 18.1913 15.2623C17.8289 15.625 17.3986 15.9127 16.9249 16.1089C16.4513 16.3052 15.9436 16.4061 15.4309 16.406Z" fill="white"/>
<path d="M13.2608 10.7539C14.1138 10.7507 14.9443 11.0275 15.6248 11.5419C15.7255 11.6163 15.7926 11.7276 15.8114 11.8513C15.8302 11.9751 15.7992 12.1013 15.7252 12.2022C15.7133 12.221 15.1738 12.7639 15.1738 12.7639C15.099 12.8427 14.9992 12.893 14.8914 12.906C14.7835 12.9191 14.6746 12.8941 14.5832 12.8354C14.1468 12.5234 13.614 12.3761 13.0793 12.4197C12.5447 12.4634 12.0428 12.695 11.6627 13.0736L9.10989 15.6265C8.32872 16.3974 8.13641 17.6279 8.74909 18.535C9.44176 19.5783 10.9616 19.9714 12.1648 18.9145C12.2941 18.8005 13.6778 17.4492 13.6778 17.4492C13.7205 17.4062 13.7713 17.3721 13.8272 17.3489C13.8831 17.3256 13.9431 17.3136 14.0037 17.3136C14.0643 17.3136 14.1243 17.3256 14.1802 17.3489C14.2361 17.3721 14.2869 17.4062 14.3296 17.4492L14.8402 17.9598C14.9259 18.0473 14.974 18.1649 14.974 18.2874C14.974 18.4099 14.9259 18.5275 14.8402 18.615L13.5229 19.9306C12.0831 21.3738 9.73108 21.612 8.16023 20.3135C7.35795 19.6552 6.8499 18.7053 6.74777 17.6726C6.64565 16.6398 6.95781 15.6088 7.61563 14.8062C7.69732 14.7057 10.4952 11.901 10.4952 11.901C10.858 11.5371 11.289 11.2484 11.7636 11.0516C12.2382 10.8547 12.747 10.7536 13.2608 10.7539Z" fill="white"/>
</svg>
