<svg width="28" height="28" viewBox="0 0 28 28" fill="none" xmlns="http://www.w3.org/2000/svg">
<path d="M13.9644 27.2663C21.4938 27.2663 27.5976 21.1625 27.5976 13.6331C27.5976 6.10376 21.4938 0 13.9644 0C6.43506 0 0.331299 6.10376 0.331299 13.6331C0.331299 21.1625 6.43506 27.2663 13.9644 27.2663Z" fill="#FF5700"/>
<path fill-rule="evenodd" clip-rule="evenodd" d="M23.9621 13.4556C23.9621 12.2087 22.9433 11.1942 21.6907 11.1942C21.1178 11.1942 20.5951 11.4084 20.1952 11.7581C18.772 10.8479 16.8905 10.2557 14.807 10.152L15.9026 6.70429L18.8919 7.4051C18.9254 8.40946 19.7544 9.21706 20.7716 9.21706C21.8097 9.21706 22.6544 8.3763 22.6544 7.34254C22.6544 6.30878 21.8095 5.46802 20.7716 5.46802C20.0175 5.46802 19.3676 5.91261 19.0669 6.55108L15.7079 5.76426C15.4854 5.71231 15.2593 5.83987 15.1911 6.05697L13.8941 10.1385C11.6758 10.1818 9.66331 10.7783 8.15512 11.7283C7.75964 11.3958 7.24913 11.1942 6.69266 11.1942C5.44005 11.1944 4.42126 12.2087 4.42126 13.4556C4.42126 14.2495 4.83517 14.9474 5.45826 15.3506C5.42651 15.5531 5.40941 15.7583 5.40941 15.9659C5.40941 19.1815 9.3309 21.7977 14.1517 21.7977C18.9721 21.7977 22.894 19.1815 22.894 15.9659C22.894 15.7733 22.8794 15.583 22.852 15.3946C23.5149 15.0002 23.9621 14.28 23.9621 13.4556ZM20.7717 6.33974C21.3275 6.33974 21.7796 6.79008 21.7796 7.34343C21.7796 7.89679 21.3275 8.34691 20.7717 8.34691C20.2157 8.34691 19.7636 7.89679 19.7636 7.34343C19.7636 6.79008 20.2157 6.33974 20.7717 6.33974ZM6.69257 12.0654C5.9227 12.0654 5.29629 12.6893 5.29629 13.4558C5.29629 13.8427 5.45595 14.1926 5.71331 14.4449C6.04217 13.6342 6.62529 12.8925 7.40448 12.2622C7.19552 12.1382 6.9526 12.0654 6.69257 12.0654ZM22.0192 15.9666C22.0192 18.7015 18.4894 20.9271 14.1518 20.9271C9.81353 20.9271 6.28441 18.7018 6.28441 15.9666C6.28441 15.8702 6.28974 15.7751 6.29817 15.6803C6.3246 15.3896 6.3921 15.1053 6.49492 14.8298C6.7616 14.1157 7.27322 13.4605 7.97202 12.9018C8.19563 12.7229 8.4379 12.554 8.69726 12.3964C10.1129 11.5362 12.0354 11.0056 14.1518 11.0056C16.2989 11.0056 18.2474 11.5512 19.6677 12.4335C19.9277 12.5947 20.1693 12.7676 20.3918 12.9504C21.0628 13.5007 21.5533 14.1423 21.812 14.8398C21.914 15.1161 21.9815 15.4006 22.0068 15.692C22.0146 15.7833 22.0192 15.8744 22.0192 15.9666ZM20.9324 12.2903C21.7112 12.9285 22.293 13.6777 22.6125 14.4968C22.9027 14.2422 23.087 13.8703 23.0875 13.4558C23.0875 12.6891 22.4611 12.0654 21.691 12.0654C21.4112 12.0654 21.1509 12.1486 20.9324 12.2903Z" fill="white"/>
<path d="M12.6109 14.9179C12.6109 14.1835 12.0127 13.5674 11.2748 13.5674C10.5371 13.5674 9.91846 14.1835 9.91846 14.9179C9.91846 15.6521 10.5373 16.2484 11.2748 16.2484C12.0127 16.2475 12.6109 15.6521 12.6109 14.9179Z" fill="white"/>
<path d="M17.1288 13.5671C16.3912 13.5671 15.7705 14.183 15.7705 14.9174C15.7705 15.6521 16.3912 16.2479 17.1288 16.2479C17.8667 16.2479 18.4654 15.6525 18.4654 14.9174C18.4649 14.1826 17.8667 13.5671 17.1288 13.5671Z" fill="white"/>
<path d="M16.7513 18.1423C16.2564 18.6344 15.423 18.8734 14.2019 18.8734C14.1982 18.8734 14.1948 18.8745 14.1913 18.8745C14.1875 18.8745 14.1844 18.8734 14.1808 18.8734C12.9595 18.8734 12.1259 18.6344 11.6316 18.1423C11.4609 17.9721 11.1838 17.9721 11.013 18.1423C10.842 18.3128 10.842 18.5885 11.013 18.758C11.6794 19.4217 12.7157 19.7447 14.1808 19.7447C14.1846 19.7447 14.1877 19.7434 14.1913 19.7434C14.1948 19.7434 14.1982 19.7447 14.2019 19.7447C15.6668 19.7447 16.7034 19.4217 17.3704 18.7585C17.5416 18.588 17.5416 18.3126 17.3709 18.1428C17.1997 17.9725 16.9225 17.9725 16.7513 18.1423Z" fill="white"/>
</svg>
