<svg width="31" height="31" viewBox="0 0 31 31" fill="none" xmlns="http://www.w3.org/2000/svg">
<circle cx="15.5" cy="15.5" r="15.5" fill="#4E4E4E"/>
<path fill-rule="evenodd" clip-rule="evenodd" d="M18.1208 15.3018C18.817 14.7564 19.3258 14.0074 19.5761 13.1592C19.8265 12.311 19.806 11.4058 19.5176 10.5698C19.2291 9.73381 18.687 9.00861 17.9669 8.49528C17.2467 7.98194 16.3844 7.70605 15.5 7.70605C14.6156 7.70605 13.7533 7.98194 13.0331 8.49528C12.313 9.00861 11.7709 9.73381 11.4824 10.5698C11.194 11.4058 11.1735 12.311 11.4239 13.1592C11.6742 14.0074 12.183 14.7564 12.8792 15.3018C11.5634 15.8258 10.435 16.7321 9.63954 17.9039C8.84408 19.0756 8.41812 20.4589 8.41666 21.8751V22.5834C8.41666 22.7713 8.49128 22.9515 8.62412 23.0843C8.75696 23.2171 8.93713 23.2918 9.12499 23.2918C9.31285 23.2918 9.49302 23.2171 9.62586 23.0843C9.7587 22.9515 9.83332 22.7713 9.83332 22.5834V21.8751C9.83332 20.3722 10.4303 18.9309 11.4931 17.8682C12.5558 16.8054 13.9971 16.2084 15.5 16.2084C17.0029 16.2084 18.4442 16.8054 19.5069 17.8682C20.5696 18.9309 21.1667 20.3722 21.1667 21.8751V22.5834C21.1667 22.7713 21.2413 22.9515 21.3741 23.0843C21.507 23.2171 21.6871 23.2918 21.875 23.2918C22.0629 23.2918 22.243 23.2171 22.3759 23.0843C22.5087 22.9515 22.5833 22.7713 22.5833 22.5834V21.8751C22.5819 20.4589 22.1559 19.0756 21.3604 17.9039C20.565 16.7321 19.4365 15.8258 18.1208 15.3018ZM12.6667 11.9584C12.6667 11.398 12.8328 10.8502 13.1442 10.3843C13.4555 9.91837 13.898 9.55521 14.4157 9.34077C14.9334 9.12632 15.5031 9.07021 16.0527 9.17953C16.6024 9.28886 17.1072 9.55871 17.5035 9.95496C17.8997 10.3512 18.1696 10.8561 18.2789 11.4057C18.3882 11.9553 18.3321 12.525 18.1176 13.0427C17.9032 13.5604 17.54 14.0029 17.0741 14.3143C16.6082 14.6256 16.0604 14.7918 15.5 14.7918C14.7485 14.7918 14.0279 14.4932 13.4965 13.9619C12.9652 13.4305 12.6667 12.7099 12.6667 11.9584V11.9584Z" fill="white"/>
</svg>
