<svg width="28" height="28" viewBox="0 0 28 28" fill="none" xmlns="http://www.w3.org/2000/svg">
<path d="M0 13.6331C0 6.10376 6.10376 0 13.6331 0C21.1625 0 27.2663 6.10376 27.2663 13.6331C27.2663 21.1625 21.1625 27.2663 13.6331 27.2663C6.10376 27.2663 0 21.1625 0 13.6331Z" fill="#55ACEE"/>
<path d="M13.2248 11.0811L13.2534 11.5528L12.7766 11.4951C11.041 11.2737 9.52478 10.5227 8.23741 9.26155L7.60802 8.63578L7.44591 9.09789C7.10261 10.128 7.32194 11.2159 8.03715 11.9476C8.41859 12.3519 8.33277 12.4097 7.67478 12.169C7.44591 12.092 7.24565 12.0342 7.22658 12.0631C7.15983 12.1305 7.38869 13.0066 7.56988 13.3532C7.81782 13.8345 8.32323 14.3063 8.87633 14.5854L9.34359 14.8069L8.7905 14.8165C8.25648 14.8165 8.23741 14.8261 8.29462 15.0283C8.48535 15.6541 9.2387 16.3184 10.0779 16.6072L10.6691 16.8094L10.1542 17.1174C9.39127 17.5603 8.49488 17.8106 7.59849 17.8298C7.16936 17.8395 6.81653 17.878 6.81653 17.9069C6.81653 18.0031 7.97993 18.5423 8.657 18.7541C10.6882 19.3798 13.1008 19.1103 14.9127 18.0416C16.2 17.2811 17.4874 15.7696 18.0882 14.3063C18.4124 13.5264 18.7367 12.1016 18.7367 11.4181C18.7367 10.9752 18.7653 10.9174 19.2993 10.3879C19.614 10.0799 19.9096 9.74292 19.9668 9.64665C20.0622 9.46373 20.0526 9.46373 19.5663 9.62739C18.7557 9.91621 18.6413 9.8777 19.0418 9.44447C19.3374 9.1364 19.6903 8.57802 19.6903 8.41435C19.6903 8.38547 19.5472 8.43361 19.3851 8.52025C19.2135 8.61653 18.832 8.76093 18.5459 8.84758L18.031 9.01124L17.5637 8.69354C17.3062 8.52025 16.9439 8.32771 16.7531 8.26994C16.2668 8.13516 15.523 8.15442 15.0843 8.30845C13.8923 8.74168 13.139 9.85845 13.2248 11.0811Z" fill="white"/>
</svg>
